<svg width="10" height="7" viewBox="0 0 10 7" fill="none" xmlns="http://www.w3.org/2000/svg">
    <path
        d="M5.22872 6.17507C5.03501 6.17433 4.84396 6.14059 4.66941 6.07633C4.49486 6.01206 4.3412 5.91887 4.21957 5.80351L1.02521 2.84261C0.838549 2.66435 0.721087 2.44956 0.686208 2.22271C0.651328 1.99587 0.700434 1.76608 0.82793 1.55955C0.931333 1.38005 1.10008 1.22712 1.314 1.11903C1.52793 1.01093 1.778 0.952235 2.03435 0.949951H8.42308C8.67943 0.952235 8.9295 1.01093 9.14343 1.11903C9.35736 1.22712 9.5261 1.38005 9.6295 1.55955C9.757 1.76608 9.80611 1.99587 9.77123 2.22271C9.73635 2.44956 9.61889 2.66435 9.43223 2.84261L6.23786 5.80351C6.11624 5.91887 5.96257 6.01206 5.78803 6.07633C5.61348 6.14059 5.42242 6.17433 5.22872 6.17507Z"
        fill="#FFC200" />
</svg>