<svg width="20" height="20" viewBox="0 0 20 20" fill="none" xmlns="http://www.w3.org/2000/svg">
    <path
        d="M0.844846 16.904C-0.0115197 13.3452 3.30372 11.2943 5.2542 10.3602C1.3725 7.37183 3.14738 3.37617 5.2542 2.04073C7.70562 0.486867 12.0936 -0.218993 14.9586 2.45042C18.4965 5.74674 16.4334 9.0422 14.9586 10.3602C15.9101 11.0011 19.1809 12.6671 19.6606 16.0914C20.2657 20.4119 1.9153 21.3525 0.844846 16.904Z"
        fill="#FFC200" />
    <path
        d="M0.844846 16.904C-0.0115197 13.3452 3.30372 11.2943 5.2542 10.3602C1.3725 7.37183 3.14738 3.37617 5.2542 2.04073C7.70562 0.486867 12.0936 -0.218993 14.9586 2.45042C18.4965 5.74674 16.4334 9.0422 14.9586 10.3602C15.9101 11.0011 19.1809 12.6671 19.6606 16.0914C20.2657 20.4119 1.9153 21.3525 0.844846 16.904Z"
        stroke="#FFC200" stroke-width="0.29551" />
</svg>